<?xml version="1.0" encoding="UTF-8"?>
<svg width="94px" height="32px" viewBox="0 0 94 32" version="1.1" xmlns="http://www.w3.org/2000/svg" xmlns:xlink="http://www.w3.org/1999/xlink">
    <!-- Generator: Sketch 53.2 (72643) - https://sketchapp.com -->
    <title>logo-planit</title>
    <desc>Created with Sketch.</desc>
    <g id="mobile" stroke="none" stroke-width="1" fill="none" fill-rule="evenodd">
        <g id="main" transform="translate(-24.000000, -24.000000)" fill="#FFFFFF">
            <g id="header">
                <g id="logo-planit" transform="translate(24.000000, 24.000000)">
                    <path d="M5.61135686,11.9668706 L5.61135686,21.9439686 C6.20241569,22.6718118 6.93716078,23.2597333 7.82186667,23.7039686 C8.70343529,24.1482039 9.5712,24.3684392 10.4251608,24.3684392 C11.9994353,24.3684392 13.2970039,23.6895373 14.3153569,22.3216941 C15.3368471,20.9576157 15.8469647,19.2227137 15.8469647,17.1056941 C15.8469647,15.0068706 15.3330824,13.2964392 14.3078275,11.9737725 C13.2832,10.6561255 11.9536314,9.99792941 10.3166118,9.99792941 C9.57496471,9.99792941 8.81574902,10.162949 8.03206275,10.4911059 C7.25214118,10.8198902 6.44398431,11.3099294 5.61135686,11.9668706 M5.61135686,24.8271059 L5.61135686,27.5270275 C5.61135686,28.786949 5.77951373,29.6089098 6.1152,30.0010667 C6.45088627,30.3888314 7.15049412,30.5845961 8.22092549,30.5845961 L8.4166902,30.5845961 L8.4166902,31.5402039 L6.27450981e-05,31.5402039 L6.27450981e-05,30.5845961 L0.139984314,30.5845961 C1.23174902,30.5845961 1.94829804,30.3888314 2.29088627,30.0010667 C2.63410196,29.6089098 2.80539608,28.786949 2.80539608,27.5270275 L2.80539608,14.1811451 C2.80539608,12.7574588 2.70437647,11.8369882 2.50108235,11.4184784 C2.29841569,11.001851 1.77010196,10.6140863 0.916768627,10.2602039 L0.0170039216,9.88247843 L0.0170039216,9.65220392 L5.61135686,7.53204706 L5.61135686,10.6805961 C6.73072941,9.63087059 7.81496471,8.84341961 8.87159216,8.31949804 C9.92821961,7.79432157 10.9497098,7.53204706 11.9360627,7.53204706 C13.9583373,7.53204706 15.6198275,8.32263529 16.9249255,9.90694902 C18.2293961,11.4887529 18.8838275,13.5028706 18.8838275,15.9373804 C18.8838275,18.7502431 18.0235922,21.0347922 16.2987294,22.7872627 C14.5807686,24.5466353 12.3313569,25.421302 9.55739608,25.421302 C8.91739608,25.421302 8.26986667,25.3723608 7.60853333,25.2744784 C6.94782745,25.1728314 6.28272941,25.0222431 5.61135686,24.8271059" id="Fill-1"></path>
                    <path d="M26.1882353,0 L26.1882353,20.9505882 C26.1882353,22.2136471 26.3526275,23.0356078 26.6851765,23.424 C27.0208627,23.8123922 27.7135686,24.0081569 28.7733333,24.0081569 L28.9659608,24.0081569 L28.9659608,24.9631373 L20.6258824,24.9631373 L20.6258824,24.0081569 L20.8850196,24.0081569 C21.9272157,24.0081569 22.6092549,23.8123922 22.928,23.424 C23.2461176,23.0356078 23.4067451,22.2136471 23.4067451,20.9505882 L23.4067451,6.69239216 C23.4067451,5.22980392 23.3094902,4.29929412 23.113098,3.904 C22.9173333,3.50870588 22.3752157,3.11341176 21.4861176,2.71811765 L20.643451,2.35105882 L20.643451,2.12015686 L26.1882353,0 Z" id="Fill-4"></path>
                    <path d="M51.5142275,11.9702588 L51.5142275,20.9509647 C51.5142275,22.2133961 51.6748549,23.0359843 52.0036392,23.423749 C52.3292863,23.8121412 53.0288941,24.0085333 54.0955608,24.0085333 L54.2913255,24.0085333 L54.2913255,24.9628863 L45.9512471,24.9628863 L45.9512471,24.0085333 L46.2241882,24.0085333 C47.2456784,24.0085333 47.9208157,23.8121412 48.2464627,23.423749 C48.5683451,23.0359843 48.7296,22.2133961 48.7296,20.9509647 L48.7296,14.1180235 C48.7296,12.7188078 48.6310902,11.8234353 48.4353255,11.4325333 C48.2389333,11.0372392 47.7005804,10.6488471 46.8121098,10.2604549 L45.9656784,9.88272941 L45.9656784,9.65182745 L51.5142275,7.53167059 L51.5142275,11.0196706 C52.7001098,9.8444549 53.8295216,8.96602353 54.8936784,8.37872941 C55.9565804,7.79080784 56.9573647,7.49716078 57.8985412,7.49716078 C59.2488157,7.49716078 60.3612863,7.96900392 61.2390902,8.9139451 C62.1451294,9.87896471 62.6000314,11.6320627 62.6000314,14.1776314 L62.6000314,20.9509647 C62.6000314,22.2133961 62.7644235,23.0359843 63.0932078,23.423749 C63.4226196,23.8121412 64.114698,24.0085333 65.1681882,24.0085333 L65.3815216,24.0085333 L65.3815216,24.9628863 L57.0414431,24.9628863 L57.0414431,24.0085333 L57.2685804,24.0085333 C58.3220706,24.0085333 59.0103843,23.8121412 59.3328941,23.4168471 C59.6579137,23.0246902 59.8185412,22.2033569 59.8185412,20.9509647 L59.8185412,14.1217882 C59.8185412,12.6209255 59.5776,11.5373176 59.0944627,10.8697098 C58.6125804,10.2008471 57.8282667,9.86892549 56.736502,9.86892549 C55.9427765,9.86892549 55.110149,10.0402196 54.2392471,10.3897098 C53.3677176,10.7366902 52.4585412,11.2643765 51.5142275,11.9702588" id="Fill-6"></path>
                    <path d="M79.0056784,7.59830588 L79.0056784,20.9504627 C79.0056784,22.2028549 79.170698,23.0248157 79.4988549,23.4169725 C79.824502,23.8122667 80.5071686,24.0080314 81.5456,24.0080314 L81.7871686,24.0080314 L81.7871686,24.9630118 L73.4470902,24.9630118 L73.4470902,24.0080314 L73.7476392,24.0080314 C74.7622275,24.0080314 75.4273255,23.8122667 75.7454431,23.4238745 C76.0673255,23.0361098 76.2241882,22.2135216 76.2241882,20.9504627 L76.2241882,14.2794039 C76.2241882,12.7540706 76.1407373,11.8166588 75.9694431,11.4677961 C75.798149,11.1176784 75.2208941,10.7186196 74.2307765,10.2605804 L73.4608941,9.8828549 L73.4608941,9.65195294 L79.0056784,7.59830588 Z" id="Fill-8"></path>
                    <path d="M93.7409255,22.9935686 L93.7409255,24.3752157 C92.5130039,25.0785882 91.2254745,25.4287059 89.8789647,25.4287059 C88.1886118,25.4287059 86.9820235,24.9110588 86.2573176,23.878902 C85.5338667,22.8467451 85.1699451,21.1149804 85.1699451,18.6873725 L85.1699451,9.16580392 L82.4587294,9.16580392 L87.9545725,3.68376471 L87.9545725,7.9974902 L93.2508863,7.9974902 L93.2508863,9.18337255 L87.9545725,9.18337255 L87.9545725,18.1835294 C87.9545725,20.1738039 88.2130824,21.6219608 88.7344941,22.5286275 C89.2559059,23.430902 90.0853961,23.8820392 91.2286118,23.8820392 C91.8410039,23.8820392 92.6773961,23.5883922 93.7409255,22.9935686" id="Fill-10"></path>
                    <polygon id="Fill-13" points="69.6220863 0.738007843 72.6413804 0.738007843 66.3436549 6.60467451"></polygon>
                    <path d="M40.0311216,22.2766431 C39.0692392,23.3640157 38.0264157,23.9067608 36.8963765,23.9067608 C36.2212392,23.9067608 35.6339451,23.6338196 35.1332392,23.0841725 C34.6300235,22.5351529 34.3777882,21.8920157 34.3777882,21.1466039 C34.3777882,20.0096627 34.7454745,19.1381333 35.4764549,18.5364078 C36.2112,17.9315451 37.7465725,17.2526431 40.0944941,16.4971922 L40.9509647,16.217349 L40.9999059,16.3886431 C40.9967686,16.4206431 40.9967686,16.4520157 40.9967686,16.4833882 C40.9967686,17.6203294 41.1504941,18.6694275 41.4585725,19.6319373 C40.9653961,21.3109961 40.0311216,22.2766431 40.0311216,22.2766431 L40.0311216,22.2766431 Z M43.2436706,10.1455059 C43.0579451,9.49232941 42.7668078,8.96589804 42.3539451,8.57750588 C41.6091608,7.88166275 40.4370824,7.50707451 38.9820235,7.5315451 C37.2885333,7.55664314 35.1545725,8.12636863 33.7936314,9.19366275 C32.4119843,10.2885647 31.6810039,11.3131922 31.6810039,12.5298196 L31.6810039,12.9847216 L34.7730824,12.0021333 L34.7730824,11.2404078 C34.7730824,10.4391529 35.0667294,9.9315451 35.5184941,9.53625098 C35.9696314,9.14095686 36.5889255,8.8473098 37.5087686,8.8473098 C38.394102,8.8473098 39.2298667,9.03617255 39.8315922,9.49421176 C40.2268863,9.77781961 40.6083765,10.1624471 40.7307294,10.5721725 C40.8499451,10.9844078 40.9126902,11.712251 40.9126902,12.7538196 L40.9126902,15.2730353 L38.6250039,15.877898 C35.9765333,16.6440157 34.252298,17.3649569 33.1046902,18.2496627 C31.9570824,19.1312314 31.2399059,20.1878588 31.2399059,21.4509176 C31.2399059,22.5909961 31.6000627,23.539702 32.3210039,24.2951529 C33.0450824,25.0468392 33.9542588,25.4214275 35.0529255,25.4214275 C36.1409255,25.4214275 37.2571608,25.2532706 38.2366118,24.6760157 C39.2160627,24.0956235 41.0839843,22.4341333 41.8155922,20.8805647 L41.8959059,20.7230745 C42.2435137,21.4440157 42.6965333,22.1040941 43.2436706,22.707702 L43.2436706,10.1455059 Z" id="Fill-15"></path>
                </g>
            </g>
        </g>
    </g>
</svg>