<?xml version="1.0" encoding="UTF-8"?>
<svg width="24px" height="24px" viewBox="0 0 24 24" version="1.1" xmlns="http://www.w3.org/2000/svg" xmlns:xlink="http://www.w3.org/1999/xlink">
    <!-- Generator: Sketch 53.2 (72643) - https://sketchapp.com -->
    <title>icon-fullscreen</title>
    <desc>Created with Sketch.</desc>
    <g id="mobile" stroke="none" stroke-width="1" fill="none" fill-rule="evenodd">
        <g id="player" transform="translate(-327.000000, -627.000000)">
            <g id="icon-fullscreen" transform="translate(327.000000, 627.000000)">
                <polygon id="Bounds" points="0 0 24 0 24 24 0 24"></polygon>
                <path d="M0,2.66666667 L0,8 L2.66666667,8 L2.66666667,2.66666667 L8,2.66666667 L8,0 L2.66666667,0 C1.2,0 0,1.2 0,2.66666667 L0,2.66666667 Z M2.66666667,16 L0,16 L0,21.3333333 C0,22.8 1.2,24 2.66666667,24 L8,24 L8,21.3333333 L2.66666667,21.3333333 L2.66666667,16 L2.66666667,16 Z M21.3333333,21.3333333 L16,21.3333333 L16,24 L21.3333333,24 C22.8,24 24,22.8 24,21.3333333 L24,16 L21.3333333,16 L21.3333333,21.3333333 L21.3333333,21.3333333 Z M21.3333333,0 L16,0 L16,2.66666667 L21.3333333,2.66666667 L21.3333333,8 L24,8 L24,2.66666667 C24,1.2 22.8,0 21.3333333,0 L21.3333333,0 Z" id="Icon" fill="#FFFFFF"></path>
            </g>
        </g>
    </g>
</svg>