<?xml version="1.0" encoding="UTF-8"?>
<svg width="23px" height="20px" viewBox="0 0 23 20" version="1.1" xmlns="http://www.w3.org/2000/svg" xmlns:xlink="http://www.w3.org/1999/xlink">
    <!-- Generator: Sketch 49 (51002) - http://www.bohemiancoding.com/sketch -->
    <title>btn-desktop</title>
    <desc>Created with Sketch.</desc>
    <defs></defs>
    <g id="tablet" stroke="none" stroke-width="1" fill="none" fill-rule="evenodd">
        <g id="source" transform="translate(-25.000000, -37.000000)">
            <g id="btn-desktop" transform="translate(24.000000, 34.000000)">
                <polygon id="Bounds" points="0 0 24 0 24 24 0 24"></polygon>
                <path d="M21.9090909,3 L3.09090909,3 C1.94090909,3 1,4 1,5.22222222 L1,18.5555556 C1,19.7777778 1.94090909,20.7777778 3.09090909,20.7777778 L8.31818182,20.7777778 L8.31818182,23 L16.6818182,23 L16.6818182,20.7777778 L21.9090909,20.7777778 C23.0590909,20.7777778 23.9895455,19.7777778 23.9895455,18.5555556 L24,5.22222222 C24,4 23.0590909,3 21.9090909,3 L21.9090909,3 Z M3,17 L3,5 L22,5 L22,17 L3,17 Z" id="Icon" fill="#777777"></path>
            </g>
        </g>
    </g>
</svg>