<?xml version="1.0" encoding="UTF-8"?>
<svg width="71px" height="10px" viewBox="0 0 71 10" version="1.1" xmlns="http://www.w3.org/2000/svg" xmlns:xlink="http://www.w3.org/1999/xlink">
    <!-- Generator: Sketch 49 (51002) - http://www.bohemiancoding.com/sketch -->
    <title>copyright-1px</title>
    <desc>Created with Sketch.</desc>
    <defs></defs>
    <g id="tablet" stroke="none" stroke-width="1" fill="none" fill-rule="evenodd">
        <g id="source" fill="#000000">
            <g id="copyright-1px">
                <path d="M8.57,4.32 C8.57,6.67 6.66,8.57 4.32,8.57 C1.97,8.57 0.08,6.67 0.08,4.32 C0.08,1.98 1.97,0.07 4.32,0.07 C6.66,0.07 8.57,1.98 8.57,4.32 Z M7.84,4.32 C7.84,2.37 6.26,0.78 4.32,0.78 C2.39,0.78 0.81,2.37 0.81,4.32 C0.81,6.28 2.39,7.87 4.32,7.87 C6.26,7.87 7.84,6.28 7.84,4.32 Z M5.54,5.49 L5.67,6.19 C5.45,6.29 5.04,6.4 4.53,6.4 C3.31,6.4 2.51,5.61 2.51,4.37 C2.51,3.19 3.33,2.27 4.7,2.27 C5.09,2.27 5.45,2.36 5.68,2.46 L5.49,3.19 C5.33,3.09 5.09,3.02 4.72,3.02 C3.94,3.02 3.48,3.59 3.48,4.33 C3.48,5.18 4.01,5.66 4.72,5.66 C5.08,5.66 5.33,5.57 5.54,5.49 Z" id="ⓒ"></path>
                <polygon id="Fill-1" points="12.7607273 -2.27272727e-05 12.7607273 0.922477273 11.8805 0.922477273 11.8805 1.80270455 11.0000455 1.80270455 11.0000455 3.56361364 12.7820909 3.56361364 12.7820909 8.00679545 15.423 8.00679545 15.423 -2.27272727e-05"></polygon>
                <polygon id="Fill-2" points="23.9321364 3.54247727 23.9321364 1.78179545 26.5941818 1.78179545 26.5941818 3.56361364 27.4957727 3.56361364 27.4957727 1.76043182 30.1582727 1.76043182 30.1582727 3.54247727 29.2775909 3.54247727 29.2775909 4.44384091 28.3764545 4.44384091 28.3764545 5.32475 29.256 5.32475 29.256 6.24611364 30.1582727 6.24611364 30.1582727 8.00702273 27.4957727 8.00702273 27.4957727 6.22520455 26.5946364 6.22520455 26.5946364 8.00702273 23.9321364 8.00702273 23.9321364 6.22520455 24.7921364 6.22520455 24.7921364 5.32475 25.7135 5.32475 25.7135 4.44384091 24.8128182 4.44384091 24.8128182 3.54247727"></polygon>
                <path d="M16.7843409,1.78177273 L22.1295682,1.78177273 L22.1295682,2.68268182 L23.0307045,2.68268182 L23.0307045,7.10609091 L22.1507045,7.10609091 L22.1507045,8.007 L19.4670682,8.007 L19.4670682,9.78881818 L16.7807045,9.78881818 L16.7843409,1.78177273 Z M19.4318409,6.23177273 L20.3707045,6.23177273 L20.3707045,3.5245 L19.4318409,3.5245 L19.4318409,6.23177273 Z" id="Fill-3"></path>
                <path d="M69.8541136,4.04495455 L69.8541136,6.86109091 C69.8541136,6.862 69.8543409,6.86518182 69.8541136,6.86563636 C69.8534318,6.86586364 69.85025,6.86563636 69.8493409,6.86563636 L68.1288864,6.86563636 C68.12775,6.86563636 68.1241136,6.86586364 68.1241136,6.86563636 C68.1238864,6.86518182 68.1241136,6.862 68.1241136,6.86109091 L68.1241136,4.05813636 C68.1241136,4.05722727 68.1236591,4.05427273 68.1241136,4.05381818 C68.1250227,4.05245455 68.1241136,4.04972727 68.1241136,4.04927273 C68.1241136,4.04859091 68.1236591,4.04518182 68.1241136,4.04495455 C68.1250227,4.04404545 68.1236591,4.04086364 68.1241136,4.04018182 C68.1241136,4.03972727 68.12775,4.04040909 68.1288864,4.04018182 L69.8493409,4.04018182 C69.85025,4.04018182 69.8534318,4.03972727 69.8541136,4.04018182 C69.8543409,4.04040909 69.8541136,4.04404545 69.8541136,4.04495455 Z M67.5832045,3.45040909 C67.5825227,3.45040909 67.5793409,3.45018182 67.5782045,3.45040909 C67.57775,3.45131818 67.57525,3.4495 67.5743409,3.45040909 C67.5738864,3.45063636 67.5743409,3.45404545 67.5743409,3.45472727 L67.5743409,4.03131818 C67.5743409,4.03268182 67.5745682,4.0345 67.5743409,4.03586364 C67.5738864,4.03677273 67.5745682,4.03972727 67.5743409,4.04018182 C67.5732045,4.04131818 67.5707045,4.03972727 67.5695682,4.04018182 C67.5688864,4.04040909 67.5659318,4.04018182 67.56525,4.04018182 L66.9888864,4.04018182 C66.9882045,4.04018182 66.9847955,4.03972727 66.9845682,4.04018182 C66.9838864,4.04040909 66.9845682,4.04404545 66.9845682,4.04495455 L66.9845682,6.86109091 C66.9845682,6.862 66.9838864,6.86518182 66.9845682,6.86563636 C66.9847955,6.86586364 66.9882045,6.86563636 66.9888864,6.86563636 L67.5607045,6.86563636 C67.5616136,6.86563636 67.5647955,6.86518182 67.56525,6.86563636 C67.5659318,6.86586364 67.5688864,6.86563636 67.5695682,6.86563636 C67.57025,6.86563636 67.5738864,6.86518182 67.5743409,6.86563636 C67.5745682,6.86586364 67.5743409,6.8695 67.5743409,6.86995455 C67.5743409,6.87154545 67.5738864,6.87290909 67.5743409,6.8745 C67.5745682,6.87586364 67.5743409,6.87768182 67.5743409,6.87904545 L67.5743409,7.41109091 C67.5743409,7.41154545 67.5738864,7.41495455 67.5743409,7.41563636 C67.5745682,7.41609091 67.5782045,7.41563636 67.5782045,7.41563636 L69.8493409,7.41563636 C69.85025,7.41563636 69.8534318,7.41495455 69.8541136,7.41563636 C69.8543409,7.41609091 69.8541136,7.41927273 69.8541136,7.41995455 L69.8541136,8.54654545 C69.8541136,8.54768182 69.8543409,8.5495 69.8541136,8.55086364 C69.8534318,8.55154545 69.8543409,8.55472727 69.8541136,8.55518182 C69.8534318,8.55609091 69.8504773,8.55472727 69.8493409,8.55518182 C69.8491136,8.55563636 69.8459318,8.55518182 69.8450227,8.55518182 L68.1288864,8.55518182 C68.12775,8.55518182 68.1241136,8.55563636 68.1241136,8.55518182 C68.1238864,8.55472727 68.1241136,8.55154545 68.1241136,8.55086364 L68.1241136,8.00972727 C68.1236591,8.00881818 68.1250227,8.00631818 68.1241136,8.00540909 C68.1236591,8.00518182 68.1204773,8.00540909 68.1195682,8.00540909 L66.9929773,8.00540909 C66.9922955,8.00540909 66.9893409,8.00518182 66.9888864,8.00540909 C66.9882045,8.00631818 66.98525,8.00472727 66.9845682,8.00540909 C66.9834318,8.00586364 66.9845682,8.00881818 66.9845682,8.00972727 C66.9838864,8.01131818 66.9845682,8.01313636 66.9845682,8.0145 L66.9845682,8.01881818 C66.9838864,8.01995455 66.9845682,8.02177273 66.9845682,8.02313636 L66.9845682,8.032 C66.9838864,8.03359091 66.9845682,8.03540909 66.9845682,8.03654545 L66.9845682,8.55086364 C66.9845682,8.55154545 66.9838864,8.55472727 66.9845682,8.55518182 C66.9847955,8.55563636 66.9882045,8.55518182 66.9888864,8.55518182 L67.5695682,8.55518182 C67.57025,8.55518182 67.5738864,8.55472727 67.5743409,8.55518182 C67.5745682,8.55563636 67.5743409,8.55904545 67.5743409,8.55972727 L67.5743409,9.14518182 L70.4041136,9.14518182 L70.4041136,8.55972727 C70.4041136,8.55904545 70.4036591,8.55563636 70.4041136,8.55518182 C70.4050227,8.55427273 70.4082045,8.55609091 70.4086591,8.55518182 C70.4088864,8.55472727 70.4122955,8.55518182 70.4129773,8.55518182 L70.9543409,8.55518182 L70.9543409,3.45040909 L67.5832045,3.45040909 Z" id="Fill-12"></path>
                <path d="M40.8164545,5.73018182 L40.8164545,7.41109091 C40.8164545,7.41154545 40.8166818,7.41495455 40.8164545,7.41563636 C40.8162273,7.41609091 40.8125909,7.41563636 40.8121364,7.41563636 L39.1355455,7.41563636 C39.1348636,7.41563636 39.1316818,7.41609091 39.131,7.41563636 C39.1307727,7.41495455 39.131,7.41154545 39.131,7.41109091 L39.131,5.73472727 C39.131,5.73381818 39.1307727,5.73063636 39.131,5.73018182 C39.1319091,5.7295 39.1303182,5.72631818 39.131,5.72540909 C39.1316818,5.72518182 39.1344091,5.72540909 39.1355455,5.72540909 L40.8121364,5.72540909 C40.8125909,5.72540909 40.8162273,5.72518182 40.8164545,5.72540909 C40.8166818,5.72631818 40.8164545,5.7295 40.8164545,5.73018182 Z M41.9607727,7.41563636 C41.9603182,7.41563636 41.9566818,7.41609091 41.9564545,7.41563636 C41.956,7.41495455 41.9564545,7.41154545 41.9564545,7.41109091 L41.9564545,4.04495455 C41.9564545,4.04404545 41.9566818,4.04040909 41.9564545,4.04018182 C41.956,4.03972727 41.9525909,4.04018182 41.9516818,4.04018182 L41.3885,4.04018182 C41.3869091,4.04018182 41.3857727,4.04040909 41.3844091,4.04018182 L41.3798636,4.04018182 C41.3782727,4.04018182 41.3766818,4.04040909 41.3753182,4.04018182 C41.3737273,4.04018182 41.3719091,4.04040909 41.371,4.04018182 C41.3700909,4.04018182 41.3669091,4.04040909 41.366,4.04018182 C41.3657727,4.0395 41.3669091,4.03677273 41.366,4.03586364 C41.3657727,4.03540909 41.366,4.03222727 41.366,4.03131818 L41.366,3.45472727 C41.366,3.45404545 41.3664545,3.45063636 41.366,3.45040909 C41.3657727,3.45018182 41.3625909,3.45040909 41.3619091,3.45040909 L38.5455455,3.45040909 C38.5448636,3.45040909 38.5416818,3.45018182 38.5412273,3.45040909 C38.5405455,3.45131818 38.5416818,3.45381818 38.5412273,3.45472727 C38.541,3.45540909 38.5412273,3.45859091 38.5412273,3.4595 L38.5412273,4.03586364 C38.5412273,4.03677273 38.5416818,4.03972727 38.5412273,4.04018182 C38.541,4.04040909 38.5375909,4.04018182 38.5366818,4.04018182 L37.9957727,4.04018182 C37.9950909,4.04018182 37.9916818,4.03972727 37.9912273,4.04018182 C37.991,4.04040909 37.9912273,4.04404545 37.9912273,4.04495455 L37.9912273,4.58563636 C37.9912273,4.58654545 37.991,4.58995455 37.9912273,4.59018182 C37.9916818,4.59063636 37.9950909,4.59018182 37.9957727,4.59018182 L39.1266818,4.59018182 C39.1271364,4.59018182 39.1307727,4.59063636 39.131,4.59018182 C39.1316818,4.58995455 39.131,4.58654545 39.131,4.58563636 L39.131,4.04927273 C39.131,4.04790909 39.1307727,4.04586364 39.131,4.04495455 C39.131,4.04404545 39.1303182,4.04086364 39.131,4.04018182 C39.1319091,4.0395 39.1344091,4.04086364 39.1355455,4.04018182 C39.136,4.03972727 39.1394091,4.04018182 39.1396364,4.04018182 L40.7939545,4.04018182 C40.7957727,4.04040909 40.7973636,4.04018182 40.7987273,4.04018182 L40.8075909,4.04018182 C40.8089545,4.04040909 40.8105455,4.04018182 40.8121364,4.04018182 C40.8125909,4.04018182 40.8162273,4.03972727 40.8164545,4.04018182 C40.8171364,4.04086364 40.8157727,4.04404545 40.8164545,4.04495455 C40.8166818,4.04518182 40.8164545,4.04859091 40.8164545,4.04927273 L40.8164545,5.16677273 C40.8164545,5.16790909 40.8166818,5.16995455 40.8164545,5.17109091 C40.8164545,5.17222727 40.8166818,5.17495455 40.8164545,5.17586364 C40.8157727,5.17631818 40.8128182,5.17495455 40.8121364,5.17586364 C40.8114545,5.17609091 40.8082727,5.17586364 40.8075909,5.17586364 L38.5455455,5.17586364 C38.5448636,5.17586364 38.5416818,5.17540909 38.5412273,5.17586364 C38.541,5.17609091 38.5412273,5.1795 38.5412273,5.17995455 L38.5412273,5.71222727 C38.541,5.71381818 38.5412273,5.71563636 38.5412273,5.71677273 C38.5412273,5.71790909 38.5416818,5.71995455 38.5412273,5.72109091 C38.541,5.72177273 38.5416818,5.72518182 38.5412273,5.72540909 C38.5405455,5.72631818 38.5378182,5.72472727 38.5366818,5.72540909 C38.536,5.72631818 38.5330455,5.72540909 38.5323636,5.72540909 L37.9957727,5.72540909 C37.9950909,5.72540909 37.9916818,5.72518182 37.9912273,5.72540909 C37.991,5.72631818 37.9912273,5.7295 37.9912273,5.73018182 L37.9912273,7.41109091 C37.9912273,7.41154545 37.991,7.41495455 37.9912273,7.41563636 C37.9916818,7.41609091 37.9950909,7.41563636 37.9957727,7.41563636 L38.5366818,7.41563636 C38.5375909,7.41563636 38.541,7.41495455 38.5412273,7.41563636 C38.5416818,7.41609091 38.5412273,7.41927273 38.5412273,7.41995455 L38.5412273,8.00109091 C38.5412273,8.00154545 38.541,8.00518182 38.5412273,8.00540909 C38.5416818,8.00586364 38.5448636,8.00540909 38.5455455,8.00540909 L42.5019091,8.00540909 C42.5021364,8.00540909 42.5057727,8.00586364 42.5062273,8.00540909 C42.5064545,8.00518182 42.5062273,8.00154545 42.5062273,8.00109091 L42.5062273,7.41995455 C42.5062273,7.41927273 42.5064545,7.41609091 42.5062273,7.41563636 C42.5057727,7.41495455 42.5021364,7.41563636 42.5019091,7.41563636 L41.9607727,7.41563636 Z" id="Fill-10"></path>
                <path d="M42.9744318,3.45036364 C42.97375,3.45036364 42.9705682,3.45013636 42.9703409,3.45036364 C42.9694318,3.45127273 42.9705682,3.454 42.9703409,3.45490909 C42.9696591,3.45536364 42.9703409,3.45854545 42.9703409,3.45945455 L42.9703409,8.00104545 C42.9703409,8.0015 42.9696591,8.00513636 42.9703409,8.00536364 C42.9703409,8.00581818 42.97375,8.00536364 42.9744318,8.00536364 L44.1053409,8.00536364 C44.1057955,8.00536364 44.1092045,8.00581818 44.1096591,8.00536364 L44.1096591,8.00104545 L44.1096591,4.60377273 L44.1096591,4.59945455 L44.1096591,4.59468182 C44.1096591,4.59377273 44.1092045,4.59081818 44.1096591,4.59036364 C44.1105682,4.58968182 44.1135227,4.59127273 44.1146591,4.59036364 C44.1148864,4.59013636 44.1178409,4.59036364 44.1185227,4.59036364 L44.6553409,4.59036364 C44.6555682,4.59036364 44.6592045,4.59081818 44.6596591,4.59036364 C44.6603409,4.59013636 44.6596591,4.5865 44.6596591,4.58559091 L44.6596591,4.04490909 C44.6596591,4.044 44.6592045,4.04059091 44.6596591,4.04036364 C44.6603409,4.03968182 44.6635227,4.04036364 44.6644318,4.04036364 L45.2451136,4.04036364 C45.2455682,4.04036364 45.2492045,4.04059091 45.2496591,4.04036364 C45.2498864,4.03968182 45.2496591,4.03672727 45.2496591,4.03581818 L45.2496591,3.45490909 C45.2496591,3.45422727 45.2498864,3.45059091 45.2496591,3.45036364 C45.2492045,3.45013636 45.2455682,3.45036364 45.2451136,3.45036364 L42.9744318,3.45036364 Z" id="Fill-6"></path>
                <path d="M48.3721591,3.44584091 L48.3721591,1.76038636 L49.5121591,1.76038636 L49.5121591,8.00106818 C49.5121591,8.00152273 49.5126136,8.00515909 49.5121591,8.00538636 C49.5119318,8.00584091 49.5082955,8.00538636 49.5078409,8.00538636 L46.6914773,8.00538636 C46.6907955,8.00538636 46.6871591,8.00584091 46.6867045,8.00538636 C46.68625,8.00470455 46.6876136,8.00175 46.6867045,8.00106818 C46.68625,8.00038636 46.6867045,7.99743182 46.6867045,7.99652273 L46.6867045,7.41993182 C46.6867045,7.41925 46.6871591,7.41606818 46.6867045,7.41561364 C46.6867045,7.41493182 46.6832955,7.41561364 46.6821591,7.41561364 L46.1414773,7.41561364 C46.1410227,7.41561364 46.1376136,7.41606818 46.1369318,7.41561364 C46.1364773,7.41493182 46.1369318,7.41175 46.1369318,7.41106818 L46.1369318,6.86993182 C46.1369318,6.86947727 46.1376136,6.86584091 46.1369318,6.86561364 C46.1364773,6.86515909 46.1332955,6.86561364 46.1326136,6.86561364 L45.5514773,6.86561364 C45.5507955,6.86561364 45.5476136,6.86584091 45.5471591,6.86561364 C45.5464773,6.86447727 45.5476136,6.86197727 45.5471591,6.86106818 C45.5469318,6.86038636 45.5471591,6.85720455 45.5471591,6.85697727 L45.5471591,4.59470455 C45.5471591,4.59447727 45.5469318,4.59061364 45.5471591,4.59015909 C45.5476136,4.58993182 45.5507955,4.59015909 45.5514773,4.59015909 L46.1326136,4.59015909 C46.1332955,4.59015909 46.1364773,4.59061364 46.1369318,4.59015909 C46.1376136,4.58993182 46.1369318,4.58652273 46.1369318,4.58561364 L46.1369318,4.04925 C46.1369318,4.04788636 46.1364773,4.04584091 46.1369318,4.04493182 C46.1376136,4.04402273 46.13625,4.04084091 46.1369318,4.04038636 C46.1378409,4.03947727 46.1405682,4.04084091 46.1414773,4.04038636 C46.1419318,4.03970455 46.1453409,4.04038636 46.1460227,4.04038636 L46.6821591,4.04038636 C46.6832955,4.04038636 46.6867045,4.04061364 46.6867045,4.04038636 C46.6871591,4.03970455 46.6867045,4.03675 46.6867045,4.03584091 L46.6867045,3.45947727 C46.6871591,3.45765909 46.6867045,3.45606818 46.6867045,3.45470455 C46.6867045,3.45402273 46.68625,3.45061364 46.6867045,3.45038636 C46.6876136,3.44947727 46.6907955,3.45129545 46.6914773,3.45038636 C46.6917045,3.45015909 46.6951136,3.45038636 46.6957955,3.45038636 L48.3678409,3.45038636 C48.3682955,3.45038636 48.3717045,3.45061364 48.3721591,3.45038636 C48.3728409,3.45015909 48.3721591,3.44652273 48.3721591,3.44584091 Z M48.3721591,4.59470455 C48.3721591,4.59447727 48.3728409,4.59061364 48.3721591,4.59015909 C48.3717045,4.58993182 48.3682955,4.59015909 48.3678409,4.59015909 L47.8269318,4.59015909 C47.82625,4.59015909 47.8226136,4.59061364 47.8223864,4.59015909 C47.8221591,4.58993182 47.8223864,4.58652273 47.8223864,4.58561364 L47.8223864,4.04493182 C47.8223864,4.04402273 47.8226136,4.04061364 47.8223864,4.04038636 C47.8221591,4.03970455 47.8185227,4.04038636 47.8178409,4.04038636 L47.2369318,4.04038636 C47.23625,4.04061364 47.2330682,4.03970455 47.2326136,4.04038636 C47.2317045,4.04084091 47.2330682,4.04402273 47.2326136,4.04493182 C47.2323864,4.04515909 47.2326136,4.04856818 47.2326136,4.04925 L47.2326136,4.57697727 C47.2323864,4.57902273 47.2326136,4.57993182 47.2326136,4.58129545 L47.2326136,4.58561364 C47.2323864,4.58697727 47.2330682,4.58993182 47.2326136,4.59015909 C47.2317045,4.59106818 47.2289773,4.58970455 47.2278409,4.59015909 C47.2276136,4.59061364 47.2242045,4.59015909 47.22375,4.59015909 L46.6914773,4.59015909 C46.6907955,4.59015909 46.6871591,4.58993182 46.6867045,4.59015909 L46.6867045,6.86561364 C46.6871591,6.86584091 46.6907955,6.86561364 46.6914773,6.86561364 L47.22375,6.86561364 C47.2248864,6.86561364 47.2267045,6.86515909 47.2278409,6.86561364 C47.2289773,6.86561364 47.2317045,6.86515909 47.2326136,6.86561364 C47.2330682,6.86629545 47.2317045,6.86925 47.2326136,6.86993182 C47.2330682,6.87106818 47.2326136,6.87379545 47.2326136,6.87447727 L47.2326136,7.41106818 C47.2326136,7.41175 47.2323864,7.41493182 47.2326136,7.41561364 C47.2330682,7.41606818 47.23625,7.41561364 47.2369318,7.41561364 L47.8178409,7.41561364 C47.8185227,7.41561364 47.8221591,7.41606818 47.8223864,7.41561364 C47.8226136,7.41493182 47.8223864,7.41175 47.8223864,7.41106818 L47.8223864,6.86993182 C47.8223864,6.86947727 47.8221591,6.86584091 47.8223864,6.86561364 C47.8226136,6.86515909 47.82625,6.86561364 47.8269318,6.86561364 L48.3678409,6.86561364 C48.3682955,6.86561364 48.3717045,6.86584091 48.3721591,6.86561364 C48.3728409,6.86515909 48.3721591,6.86197727 48.3721591,6.86106818 L48.3721591,4.59470455 Z" id="Fill-4"></path>
                <path d="M53.8324318,4.04018182 L54.3601591,4.04018182 C54.3608409,4.04018182 54.36425,4.03972727 54.3649318,4.04018182 L54.3649318,5.72563636 C54.36425,5.72631818 54.3608409,5.72563636 54.3601591,5.72563636 L51.5440227,5.72563636 C51.5437955,5.72563636 51.5401591,5.72518182 51.5397045,5.72563636 C51.5390227,5.72631818 51.5397045,5.7295 51.5397045,5.73018182 L51.5397045,7.41109091 C51.5397045,7.41154545 51.5390227,7.41495455 51.5397045,7.41563636 C51.5401591,7.41609091 51.5437955,7.41563636 51.5440227,7.41563636 L53.2249318,7.41563636 C53.2253864,7.41563636 53.2287955,7.41609091 53.2290227,7.41563636 C53.2299318,7.41495455 53.2290227,7.41154545 53.2290227,7.41109091 L53.2290227,6.86995455 C53.2290227,6.8695 53.2287955,6.86586364 53.2290227,6.86563636 C53.2299318,6.86518182 53.2335682,6.86563636 53.2337955,6.86563636 L54.3601591,6.86563636 C54.3608409,6.86563636 54.36425,6.86518182 54.3649318,6.86563636 L54.3649318,7.41563636 C54.36425,7.41609091 54.3608409,7.41563636 54.3601591,7.41563636 L53.8235682,7.41563636 C53.8228864,7.41563636 53.8199318,7.41495455 53.8190227,7.41563636 C53.8181136,7.41609091 53.8153864,7.41495455 53.8144773,7.41563636 C53.81425,7.41609091 53.8144773,7.41927273 53.8144773,7.41995455 L53.8144773,8.00109091 C53.8144773,8.00154545 53.8151591,8.00518182 53.8144773,8.00540909 C53.81425,8.00586364 53.8108409,8.00540909 53.8103864,8.00540909 L50.99425,8.00540909 C50.9931136,8.00540909 50.9894773,8.00586364 50.9894773,8.00540909 C50.98925,8.00518182 50.9894773,8.00154545 50.9894773,8.00109091 L50.9894773,7.41995455 L50.9894773,7.41563636 C50.98925,7.41495455 50.9856136,7.41563636 50.9851591,7.41563636 L50.4037955,7.41563636 C50.4035682,7.41563636 50.4001591,7.41609091 50.3997045,7.41563636 C50.39925,7.41495455 50.3997045,7.41154545 50.3997045,7.41109091 L50.3997045,4.04495455 C50.3997045,4.04404545 50.39925,4.04040909 50.3997045,4.04018182 C50.4001591,4.03972727 50.4035682,4.04018182 50.4037955,4.04018182 L50.9808409,4.04018182 C50.9808409,4.04018182 50.9849318,4.04040909 50.9851591,4.04018182 C50.9858409,4.03972727 50.9887955,4.04086364 50.9894773,4.04018182 L50.9894773,4.03586364 L50.9894773,4.03131818 L50.9894773,4.02677273 L50.9894773,4.02245455 L50.9894773,4.01813636 L50.9894773,3.4595 C50.9894773,3.45859091 50.98925,3.45540909 50.9894773,3.45472727 C50.9903864,3.45381818 50.9887955,3.45131818 50.9894773,3.45040909 C50.9894773,3.45018182 50.9931136,3.45040909 50.99425,3.45040909 L53.8103864,3.45040909 C53.8108409,3.45040909 53.81425,3.45018182 53.8144773,3.45040909 C53.8151591,3.45063636 53.8144773,3.45404545 53.8144773,3.45472727 L53.8144773,4.03131818 C53.8144773,4.03222727 53.81425,4.03540909 53.8144773,4.03586364 C53.8153864,4.03677273 53.8137955,4.0395 53.8144773,4.04018182 C53.8153864,4.04086364 53.8181136,4.04018182 53.8190227,4.04018182 C53.8208409,4.04040909 53.8222045,4.04018182 53.8235682,4.04018182 L53.8283409,4.04018182 C53.8294773,4.04040909 53.8308409,4.04018182 53.8324318,4.04018182 Z M53.2290227,4.04495455 C53.2290227,4.04404545 53.2299318,4.04040909 53.2290227,4.04018182 C53.2287955,4.03972727 53.2253864,4.04018182 53.2249318,4.04018182 L51.5440227,4.04018182 C51.5433409,4.04040909 51.5401591,4.03972727 51.5397045,4.04018182 C51.5387955,4.04086364 51.5403864,4.04404545 51.5397045,4.04495455 C51.5390227,4.04518182 51.5397045,4.04859091 51.5397045,4.04927273 L51.5397045,5.17109091 C51.5397045,5.172 51.5390227,5.17540909 51.5397045,5.17586364 C51.5401591,5.17609091 51.5437955,5.17586364 51.5440227,5.17586364 L53.2249318,5.17586364 C53.2253864,5.17586364 53.2287955,5.17609091 53.2290227,5.17586364 C53.2299318,5.17540909 53.2290227,5.172 53.2290227,5.17109091 L53.2290227,4.04495455 Z" id="Fill-8"></path>
                <path d="M58.6895455,4.04029545 C58.6879545,4.04029545 58.6861364,4.04052273 58.6847727,4.04029545 L58.6804545,4.04029545 C58.6790909,4.04029545 58.6770455,4.04052273 58.6756818,4.04029545 C58.6752273,4.04029545 58.6720455,4.04097727 58.6715909,4.04029545 C58.6709091,4.03938636 58.6725,4.03665909 58.6715909,4.03575 C58.6713636,4.03552273 58.6715909,4.03234091 58.6715909,4.03143182 L58.6715909,3.45484091 C58.6715909,3.45415909 58.6720455,3.45052273 58.6715909,3.45029545 C58.6713636,3.45006818 58.6675,3.45029545 58.6668182,3.45029545 L55.2568182,3.45029545 C55.2559091,3.45029545 55.2525,3.45006818 55.2518182,3.45029545 C55.2515909,3.45120455 55.2525,3.45393182 55.2518182,3.45484091 C55.2515909,3.45552273 55.2518182,3.45847727 55.2518182,3.45938636 L55.2518182,8.00120455 C55.2518182,8.00165909 55.2515909,8.00506818 55.2518182,8.00529545 C55.2525,8.00575 55.2559091,8.00529545 55.2568182,8.00529545 L56.3872727,8.00529545 C56.3879545,8.00529545 56.3915909,8.00575 56.3920455,8.00529545 C56.3922727,8.00506818 56.3920455,8.00165909 56.3920455,8.00120455 L56.3920455,4.59938636 C56.3920455,4.59779545 56.3915909,4.59575 56.3920455,4.59461364 C56.3922727,4.59393182 56.3915909,4.59075 56.3920455,4.59029545 C56.3925,4.58961364 56.3954545,4.59120455 56.3968182,4.59029545 C56.3970455,4.59006818 56.4,4.59029545 56.4011364,4.59029545 L56.9777273,4.59029545 C56.9784091,4.59029545 56.9815909,4.59075 56.9820455,4.59029545 L56.9820455,4.04506818 C56.9820455,4.04415909 56.9815909,4.04052273 56.9820455,4.04029545 C56.9820455,4.03961364 56.9856818,4.04029545 56.9863636,4.04029545 L58.1172727,4.04029545 C58.1175,4.04029545 58.1213636,4.03961364 58.1213636,4.04029545 C58.1222727,4.04052273 58.1213636,4.04415909 58.1213636,4.04506818 L58.1213636,8.00120455 L58.1213636,8.00529545 C58.1222727,8.00575 58.1259091,8.00529545 58.1261364,8.00529545 L59.2170455,8.00529545 C59.2175,8.00529545 59.2213636,8.00575 59.2215909,8.00529545 C59.2222727,8.00506818 59.2215909,8.00165909 59.2215909,8.00120455 L59.2215909,4.04506818 C59.2215909,4.04415909 59.2222727,4.04052273 59.2215909,4.04029545 C59.2213636,4.03961364 59.2175,4.04029545 59.2170455,4.04029545 L58.6895455,4.04029545 Z" id="Fill-19"></path>
                <path d="M60.1088864,3.45036364 C60.1084318,3.45036364 60.1047955,3.45013636 60.1047955,3.45036364 C60.1038864,3.45127273 60.1057045,3.454 60.1047955,3.45490909 C60.1038864,3.45536364 60.1047955,3.45854545 60.1047955,3.45945455 L60.1047955,3.464 C60.1038864,3.46445455 60.1047955,3.46718182 60.1047955,3.46809091 L60.1047955,8.00104545 C60.1047955,8.0015 60.1043409,8.00513636 60.1047955,8.00536364 C60.1047955,8.00581818 60.1084318,8.00536364 60.1088864,8.00536364 L61.24025,8.00536364 C61.2407045,8.00536364 61.2443409,8.00581818 61.2450227,8.00536364 L61.2450227,3.45036364 C61.2443409,3.45013636 61.2407045,3.45036364 61.24025,3.45036364 L60.1088864,3.45036364 Z" id="Fill-21"></path>
                <path d="M60.1049091,2.8915 C60.1049091,2.89240909 60.1037727,2.89581818 60.1049091,2.89604545 C60.1058182,2.89672727 60.1037727,2.89968182 60.1049091,2.90059091 C60.1049091,2.90127273 60.1085455,2.90059091 60.109,2.90059091 L61.2355909,2.90059091 C61.2365,2.90059091 61.2399091,2.90127273 61.2401364,2.90059091 C61.2408182,2.89968182 61.244,2.90127273 61.2451364,2.90059091 L61.2451364,2.89604545 C61.2451364,2.89445455 61.2444545,2.89286364 61.2451364,2.8915 L61.2451364,1.76036364 L60.1049091,1.76036364 L60.1049091,2.8915 Z" id="Fill-23"></path>
                <path d="M65.5514545,4.04029545 C65.5507727,4.04029545 65.5469091,4.04052273 65.5466818,4.04029545 L65.5466818,3.45484091 C65.5466818,3.45415909 65.5469091,3.45052273 65.5466818,3.45029545 C65.5466818,3.45006818 65.5432727,3.45029545 65.5425909,3.45029545 L62.1366818,3.45029545 C62.1357727,3.45029545 62.1319091,3.45006818 62.1316818,3.45029545 C62.1307727,3.45120455 62.1328182,3.45393182 62.1316818,3.45484091 C62.1312273,3.45552273 62.1316818,3.45847727 62.1316818,3.45938636 L62.1316818,8.00120455 C62.1316818,8.00165909 62.1312273,8.00506818 62.1316818,8.00529545 C62.1319091,8.00575 62.1357727,8.00529545 62.1366818,8.00529545 L63.2671364,8.00529545 C63.2678182,8.00529545 63.2714545,8.00575 63.2719091,8.00529545 C63.2721364,8.00506818 63.2719091,8.00165909 63.2719091,8.00120455 L63.2719091,4.59938636 C63.2719091,4.59779545 63.2714545,4.59575 63.2719091,4.59461364 C63.2721364,4.59393182 63.2714545,4.59075 63.2719091,4.59029545 C63.2728182,4.58961364 63.2753182,4.59120455 63.2757727,4.59029545 C63.2769091,4.59006818 63.2803182,4.59029545 63.2807727,4.59029545 L63.8573636,4.59029545 C63.8582727,4.59029545 63.8612273,4.59075 63.8619091,4.59029545 L63.8619091,4.05802273 C63.8619091,4.05643182 63.8612273,4.05484091 63.8619091,4.05393182 L63.8619091,4.04915909 C63.8619091,4.04779545 63.8612273,4.04575 63.8619091,4.04506818 C63.8619091,4.04415909 63.8612273,4.04097727 63.8619091,4.04029545 C63.8621364,4.03938636 63.8655455,4.04097727 63.8662273,4.04029545 C63.8666818,4.03961364 63.8698636,4.04029545 63.8705455,4.04029545 L64.9569091,4.04029545 C64.9580455,4.04029545 64.9605455,4.03961364 64.961,4.04029545 C64.9616818,4.04052273 64.961,4.04415909 64.961,4.04506818 L64.961,8.00120455 C64.961,8.00165909 64.9605455,8.00506818 64.961,8.00529545 C64.9616818,8.00575 64.9650909,8.00529545 64.966,8.00529545 L66.0923636,8.00529545 C66.0930455,8.00529545 66.096,8.00575 66.0969091,8.00529545 C66.0971364,8.00506818 66.0969091,8.00165909 66.0969091,8.00120455 L66.0969091,4.04506818 C66.0969091,4.04415909 66.0971364,4.04052273 66.0969091,4.04029545 C66.096,4.03961364 66.0930455,4.04029545 66.0923636,4.04029545 L65.5514545,4.04029545 Z" id="Fill-17"></path>
                <path d="M36.5183636,2.90059091 C36.5179091,2.90059091 36.5142727,2.90127273 36.5140455,2.90059091 C36.5133636,2.89968182 36.5147273,2.89672727 36.5140455,2.89581818 C36.5135909,2.89581818 36.5140455,2.89240909 36.5140455,2.8915 L36.5140455,2.31513636 C36.5140455,2.31445455 36.5142727,2.31081818 36.5140455,2.31036364 C36.5135909,2.30990909 36.5101818,2.31036364 36.5095,2.31036364 L35.9817727,2.31036364 C35.9806364,2.31036364 35.9788182,2.31081818 35.9774545,2.31036364 L35.9731364,2.31036364 C35.9713182,2.31036364 35.9699545,2.31081818 35.9685909,2.31036364 C35.9674545,2.31036364 35.9647273,2.31081818 35.9640455,2.31036364 C35.9633636,2.30968182 35.9649545,2.30672727 35.9640455,2.30604545 C35.9638182,2.30604545 35.9640455,2.30218182 35.9640455,2.30127273 L35.9640455,1.76036364 L33.1388182,1.76036364 L33.1388182,2.30604545 C33.1388182,2.3065 33.1390455,2.30990909 33.1388182,2.31036364 C33.1383636,2.31081818 33.1349545,2.31036364 33.1345,2.31036364 L32.5576818,2.31036364 C32.5572273,2.31036364 32.5538182,2.30990909 32.5533636,2.31036364 C32.5524545,2.31127273 32.5499545,2.30968182 32.5488182,2.31036364 C32.5485909,2.31081818 32.5488182,2.31445455 32.5488182,2.31513636 L32.5488182,2.31922727 L32.5488182,2.32377273 L32.5488182,2.32786364 L32.5488182,2.34172727 L32.5488182,2.34627273 L32.5488182,2.89581818 C32.5488182,2.89672727 32.5495,2.90013636 32.5488182,2.90059091 C32.5485909,2.90127273 32.5449545,2.90059091 32.5445,2.90059091 L32.0038182,2.90059091 C32.0026818,2.90059091 31.9995,2.90013636 31.9988182,2.90059091 C31.9985909,2.90127273 31.9988182,2.90422727 31.9988182,2.90490909 L31.9988182,3.44581818 C31.9988182,3.4465 31.9995,3.45013636 31.9988182,3.45036364 C31.9985909,3.45059091 31.9951818,3.45036364 31.9947273,3.45036364 L31.4090455,3.45036364 L31.4090455,6.27581818 L31.9772273,6.27581818 C31.9783636,6.27581818 31.9799545,6.27536364 31.9813182,6.27581818 L31.9856364,6.27581818 C31.9872273,6.27581818 31.9885909,6.27536364 31.9904091,6.27581818 C31.9917727,6.27581818 31.9931364,6.27536364 31.9947273,6.27581818 C31.9951818,6.27581818 31.9985909,6.27536364 31.9988182,6.27581818 C31.9995,6.2765 31.9985909,6.27922727 31.9988182,6.27990909 C31.9995,6.28036364 31.9988182,6.28354545 31.9988182,6.28445455 L31.9988182,6.86104545 C31.9988182,6.86195455 31.9985909,6.86513636 31.9988182,6.86559091 C31.9995,6.86581818 32.0026818,6.86559091 32.0038182,6.86559091 L32.5445,6.86559091 C32.5449545,6.86559091 32.5485909,6.86513636 32.5488182,6.86559091 C32.5495,6.86581818 32.5488182,6.86945455 32.5488182,6.86990909 L32.5488182,7.41104545 C32.5488182,7.41172727 32.5485909,7.41490909 32.5488182,7.41559091 C32.5495,7.41604545 32.5529091,7.41559091 32.5533636,7.41559091 L33.1345,7.41559091 C33.1349545,7.41559091 33.1383636,7.41490909 33.1388182,7.41559091 C33.1390455,7.41604545 33.1388182,7.41922727 33.1388182,7.41990909 L33.1388182,8.00104545 C33.1388182,8.0015 33.1383636,8.00513636 33.1388182,8.00536364 C33.1390455,8.00581818 33.1426818,8.00536364 33.1433636,8.00536364 L37.0995,8.00536364 C37.1004091,8.00536364 37.1035909,8.00581818 37.1040455,8.00536364 C37.1042727,8.00513636 37.1040455,8.0015 37.1040455,8.00104545 L37.1040455,4.59468182 C37.1040455,4.59445455 37.1042727,4.59081818 37.1040455,4.59036364 C37.1035909,4.59013636 37.1004091,4.59036364 37.0995,4.59036364 L34.2788182,4.59036364 C34.2781364,4.59036364 34.2747273,4.59013636 34.2745,4.59036364 C34.2738182,4.59081818 34.2745,4.59445455 34.2745,4.59468182 L34.2745,5.17104545 C34.2745,5.17195455 34.2738182,5.17536364 34.2745,5.17581818 C34.2747273,5.17604545 34.2781364,5.17581818 34.2788182,5.17581818 L35.9597273,5.17581818 C35.9601818,5.17581818 35.9638182,5.17536364 35.9640455,5.17581818 C35.9649545,5.1765 35.9633636,5.17922727 35.9640455,5.17990909 C35.9645,5.18013636 35.9640455,5.184 35.9640455,5.18445455 L35.9640455,6.86104545 C35.9640455,6.86195455 35.9645,6.86513636 35.9640455,6.86559091 C35.9638182,6.86581818 35.9601818,6.86559091 35.9597273,6.86559091 L35.3785909,6.86559091 C35.3779091,6.86559091 35.3747273,6.86513636 35.3740455,6.86559091 C35.3735909,6.86581818 35.3740455,6.86945455 35.3740455,6.86990909 L35.3740455,7.39740909 C35.3740455,7.39922727 35.3742727,7.40081818 35.3740455,7.40240909 L35.3740455,7.40672727 C35.3740455,7.40831818 35.3745,7.40968182 35.3740455,7.41104545 C35.3740455,7.41172727 35.3747273,7.41490909 35.3740455,7.41559091 C35.3733636,7.41604545 35.3704091,7.41490909 35.3697273,7.41559091 C35.3692727,7.41604545 35.3658636,7.41559091 35.3651818,7.41559091 L33.6974545,7.41559091 C33.6963182,7.41513636 33.6947273,7.41559091 33.6931364,7.41559091 C33.6924545,7.41559091 33.6892727,7.41604545 33.6888182,7.41559091 C33.6881364,7.41490909 33.6895,7.41172727 33.6888182,7.41104545 C33.6881364,7.41059091 33.6888182,7.40740909 33.6888182,7.40672727 L33.6888182,6.86990909 C33.6888182,6.86945455 33.6892727,6.86581818 33.6888182,6.86559091 C33.6883636,6.86513636 33.6849545,6.86559091 33.6842727,6.86559091 L33.1479091,6.86559091 C33.1463182,6.86559091 33.1445,6.86581818 33.1433636,6.86559091 C33.1424545,6.86559091 33.1395,6.86627273 33.1388182,6.86559091 C33.1381364,6.86445455 33.1395,6.86195455 33.1388182,6.86104545 C33.1383636,6.86036364 33.1388182,6.85718182 33.1388182,6.85695455 L33.1388182,6.27990909 C33.1388182,6.27968182 33.1390455,6.27627273 33.1388182,6.27581818 C33.1383636,6.27536364 33.1349545,6.27581818 33.1345,6.27581818 L32.5533636,6.27581818 C32.5529091,6.27581818 32.5495,6.27627273 32.5488182,6.27581818 C32.5485909,6.27536364 32.5488182,6.27195455 32.5488182,6.27081818 L32.5488182,3.45468182 C32.5488182,3.45422727 32.5485909,3.45059091 32.5488182,3.45036364 C32.5495,3.45013636 32.5529091,3.45036364 32.5533636,3.45036364 L33.1345,3.45036364 C33.1349545,3.45036364 33.1383636,3.45059091 33.1388182,3.45036364 C33.1390455,3.45013636 33.1388182,3.4465 33.1388182,3.44581818 L33.1388182,2.91809091 L33.1388182,2.91354545 C33.1390455,2.91240909 33.1388182,2.91059091 33.1388182,2.90922727 C33.1388182,2.90786364 33.1383636,2.90604545 33.1388182,2.90490909 C33.1390455,2.90422727 33.1383636,2.90127273 33.1388182,2.90059091 C33.1395,2.89968182 33.1424545,2.90127273 33.1433636,2.90059091 C33.1438182,2.89968182 33.1472273,2.90059091 33.1479091,2.90059091 L33.6842727,2.90059091 C33.6849545,2.90059091 33.6883636,2.90127273 33.6888182,2.90059091 C33.6892727,2.90013636 33.6888182,2.89672727 33.6888182,2.89581818 L33.6888182,2.32377273 C33.6888182,2.32218182 33.6885909,2.32081818 33.6888182,2.31922727 C33.6888182,2.31786364 33.6885909,2.31627273 33.6888182,2.31513636 C33.6888182,2.31445455 33.6881364,2.31081818 33.6888182,2.31036364 C33.6897273,2.30968182 33.6924545,2.31127273 33.6931364,2.31036364 C33.6938182,2.30990909 33.697,2.31036364 33.6974545,2.31036364 L35.3697273,2.31036364 C35.3704091,2.31036364 35.3735909,2.30990909 35.3740455,2.31036364 C35.3747273,2.31081818 35.3740455,2.31445455 35.3740455,2.31513636 L35.3740455,2.89581818 C35.3740455,2.89672727 35.3735909,2.90013636 35.3740455,2.90059091 C35.3747273,2.90127273 35.3779091,2.90059091 35.3785909,2.90059091 L35.9597273,2.90059091 C35.9601818,2.90059091 35.9638182,2.89968182 35.9640455,2.90059091 C35.9649545,2.90127273 35.9633636,2.90422727 35.9640455,2.90490909 C35.9645,2.90513636 35.9640455,2.90831818 35.9640455,2.90922727 L35.9640455,3.44581818 C35.9640455,3.4465 35.9638182,3.45013636 35.9640455,3.45036364 C35.9645,3.45059091 35.9681364,3.45036364 35.9685909,3.45036364 L37.0995,3.45036364 C37.1004091,3.45036364 37.1035909,3.45059091 37.1040455,3.45036364 C37.1042727,3.45013636 37.1040455,3.4465 37.1040455,3.44581818 L37.1040455,2.90490909 C37.1040455,2.90422727 37.1042727,2.90127273 37.1040455,2.90059091 C37.1035909,2.90013636 37.1004091,2.90059091 37.0995,2.90059091 L36.5183636,2.90059091 Z" id="Fill-15"></path>
            </g>
        </g>
    </g>
</svg>